<svg width="299" height="178" viewBox="0 0 299 178" fill="none" xmlns="http://www.w3.org/2000/svg">
<rect x="50.5" y="2.5" width="245.49" height="155.5" rx="9.5" stroke="#E0E0E0" stroke-width="5"/>
<path d="M236.444 25.3883L219.62 43.5822L233.608 59.9215" stroke="#D8D8D8" stroke-opacity="0.5" stroke-width="2"/>
<path d="M264.242 60.225L281.066 42.031L267.078 25.6918" stroke="#D8D8D8" stroke-opacity="0.5" stroke-width="2"/>
<path d="M258.732 20.6718L242.134 62.7832" stroke="#D8D8D8" stroke-opacity="0.5" stroke-width="2"/>
<path d="M92.8854 57.5762C167.97 57.5762 185.286 57.5762 184.558 57.5762" stroke="#DADADA" stroke-opacity="0.5" stroke-width="2"/>
<path d="M92.8854 83.562C178.676 83.562 198.461 83.562 197.629 83.562" stroke="#DADADA" stroke-opacity="0.5" stroke-width="2"/>
<path d="M68.5085 88.4024C100.68 88.4024 108.099 88.4024 107.787 88.4024" stroke="#DADADA" stroke-opacity="0.5"/>
<path d="M92.8854 66.2381C142.93 66.2381 154.471 66.2381 153.986 66.2381" stroke="#DADADA" stroke-opacity="0.5" stroke-width="2"/>
<path d="M92.8854 74.9C142.93 74.9 154.471 74.9 153.986 74.9" stroke="#DADADA" stroke-opacity="0.5" stroke-width="2"/>
<path d="M92.8854 48.9143C157.228 48.9143 172.067 48.9143 171.443 48.9143" stroke="#DADADA" stroke-opacity="0.5" stroke-width="2"/>
<rect x="1.5" y="176.5" width="135.59" height="84.3072" rx="8.5" transform="rotate(-90 1.5 176.5)" fill="#FAFAFA" stroke="#E0E0E0" stroke-width="3"/>
<ellipse cx="43.6536" cy="160.676" rx="4.36536" ry="4.33095" fill="#E0E0E0"/>
</svg>
