<svg width="266" height="273" viewBox="0 0 266 273" fill="none" xmlns="http://www.w3.org/2000/svg">
<path d="M43.225 199.685C48.4203 194.939 60.941 184.915 99.75 166.733C100.01 166.626 100.27 166.466 100.529 166.359L109.205 162.36C109.361 162.307 109.517 162.2 109.673 162.147V172.971L111.647 190.513C121.051 187.741 133.052 184.808 133.052 184.808L154.041 192.22L156.223 172.918V162.147C156.483 162.254 156.691 162.36 156.95 162.467L161.003 164.333C163.6 165.506 166.042 166.679 168.432 167.799C173.42 170.145 177.939 172.331 182.044 174.411C208.852 187.901 218.255 195.632 222.723 199.685C224.489 201.284 226.152 203.844 227.607 207.043C238.621 189.234 245.011 168.119 245.011 145.458C245.063 81.9 194.876 30.3926 133 30.3926C71.1239 30.3926 20.9371 81.9 20.9371 145.458C20.9371 168.119 27.3274 189.234 38.3414 207.043C39.8481 203.844 41.4586 201.337 43.225 199.685Z" fill="#D7B377"/>
<path d="M109.225 173.024V173.203L109.339 173.342C115.815 181.231 124.418 185.306 132.994 185.415L133.5 185.421V184.915V96.2965V95.7965H133C127.082 95.7965 121.143 97.6667 116.676 101.44C112.197 105.222 109.225 110.895 109.225 118.424V173.024Z" fill="#DCC5A1" stroke="black"/>
<path d="M133 96.2965V184.862C141.468 184.915 149.885 181.022 156.275 172.971V118.424C156.275 103.655 144.637 96.2965 133 96.2965Z" fill="#EDD9B4"/>
<path d="M100.529 166.359L109.205 162.36C106.244 163.747 103.335 165.08 100.529 166.359Z" fill="#3E7EBC"/>
<path d="M157.002 162.52L161.055 164.386C159.756 163.747 158.405 163.16 157.002 162.52Z" fill="#3E7EBC"/>
<path d="M99.75 166.733C100.01 166.626 100.27 166.466 100.529 166.359L99.75 166.733Z" fill="#89BCE5"/>
<path d="M109.725 162.147L109.257 162.36C109.413 162.307 109.569 162.2 109.725 162.147Z" fill="#89BCE5"/>
<path d="M168.432 167.746L161.055 164.386C163.652 165.56 166.094 166.733 168.484 167.852L168.432 167.746Z" fill="#89BCE5"/>
<path d="M156.275 162.2C156.535 162.307 156.743 162.414 157.002 162.52L156.275 162.2Z" fill="#89BCE5"/>
<path d="M43.225 199.685C42.8392 199.367 42.8392 199.367 42.8391 199.367L42.839 199.367L42.8384 199.368L42.8363 199.37L42.8285 199.38L42.7986 199.416C42.7725 199.448 42.7344 199.495 42.6854 199.556C42.5875 199.678 42.4464 199.854 42.2727 200.076C41.9255 200.52 41.4474 201.145 40.9233 201.871C39.8803 203.317 38.6351 205.189 37.8863 206.836L37.7758 207.079L37.9161 207.306C46.4211 221.068 57.6921 232.85 70.9469 241.848L71.6231 242.307L71.7239 241.496C71.7383 241.38 71.7526 241.266 71.7668 241.152V241.154V241.185V241.216V241.246V241.277V241.308V241.339V241.37V241.401V241.432V241.463V241.494V241.525V241.557V241.588V241.619V241.651V241.682V241.714V241.745V241.777V241.808V241.84V241.872V241.904V241.935V241.967V241.999V242.031V242.063V242.095V242.128V242.395L71.9894 242.544C80.1847 248.008 89.1611 252.346 98.657 255.506L99.7758 255.878L99.2656 254.815L83.9172 222.836L101.851 210.548L102.565 210.059L101.785 209.685L79.9498 199.209L100.173 166.999L101.078 165.559L99.5379 166.28C80.1127 175.381 65.962 183.63 56.6638 189.606C52.0147 192.595 48.5787 195.015 46.3032 196.69C45.1654 197.528 44.3177 198.179 43.7535 198.621C43.4714 198.842 43.2602 199.011 43.119 199.126C43.0484 199.183 42.9954 199.226 42.9597 199.255L42.9193 199.289L42.9088 199.297L42.906 199.3L42.9052 199.3C42.905 199.3 42.9048 199.301 43.225 199.685ZM43.225 199.685L42.8392 199.367L42.869 199.33L42.9048 199.301L43.225 199.685Z" fill="#2B4162" stroke="black"/>
<path d="M223.117 199.32L223.113 199.316C218.653 195.223 209.155 187.468 182.321 173.964C178.211 171.882 173.687 169.694 168.697 167.347L167.258 166.67L168.051 168.048L185.966 199.2L164.111 209.685L163.331 210.059L164.045 210.548L181.979 222.836L166.63 254.868L166.126 255.921L167.236 255.56C176.788 252.453 185.764 248.061 194.009 242.598L194.233 242.449V242.181V242.149V242.117V242.085V242.053V242.021V241.989V241.957V241.925V241.893V241.862V241.83V241.798V241.767V241.735V241.704V241.672V241.641V241.61V241.579V241.547V241.516V241.485V241.454V241.423V241.392V241.361V241.33V241.3V241.269V241.238V241.208V241.202C194.247 241.316 194.262 241.432 194.276 241.549L194.376 242.361L195.053 241.901C208.308 232.904 219.579 221.122 228.084 207.359L228.225 207.13L228.112 206.886C226.593 203.607 224.95 201.035 223.117 199.32Z" fill="#2B4162" stroke="black"/>
<path d="M119.492 259.617L119.544 260.203C120.012 260.203 120.427 260.257 120.895 260.257L120.947 259.83C120.479 259.777 120.012 259.723 119.492 259.617Z" fill="#E6E6E5"/>
<path d="M119.492 259.617C119.96 259.67 120.479 259.723 120.947 259.777L128.584 204.857L122.35 196.005L133.052 184.808C133.052 184.808 121.051 187.741 111.647 190.513L119.492 259.617Z" fill="#E6E6E5"/>
<path d="M145.053 259.83L145.105 260.256C145.521 260.256 145.936 260.203 146.352 260.203L146.404 259.67C145.936 259.723 145.469 259.777 145.053 259.83Z" fill="#E6E6E5"/>
<path d="M133.104 184.862L143.443 196.059L137.312 204.91L144.949 259.83C145.417 259.777 145.884 259.723 146.352 259.67L154.041 192.273L133.104 184.862Z" fill="#E6E6E5"/>
<path d="M111.202 190.623L111.202 190.623L118.924 259.09C116.701 258.79 114.486 258.442 112.317 258.007L112.31 258.005C107.833 257.17 103.454 256.025 99.1734 254.623L83.9171 222.836L101.851 210.548L102.565 210.059L101.785 209.685L79.9508 199.21L100.144 167.182C100.239 167.137 100.33 167.09 100.412 167.048L100.42 167.044C100.553 166.976 100.664 166.919 100.771 166.875L100.781 166.871L100.791 166.867L109.225 162.979V173.024V173.053L109.228 173.08L111.202 190.623Z" fill="#385F71" stroke="black"/>
<path d="M146.973 259.091L154.59 192.276L154.59 192.276L156.772 172.974L156.775 172.946V172.918V162.914C156.784 162.918 156.793 162.922 156.803 162.925L160.846 164.787L160.846 164.787L160.849 164.789C162.712 165.63 164.492 166.47 166.235 167.293C166.87 167.593 167.501 167.89 168.129 168.185L185.966 199.2L164.111 209.685L163.331 210.059L164.045 210.548L181.979 222.836L166.724 254.674C163.633 255.657 160.545 256.536 157.361 257.262C153.944 258.014 150.482 258.623 146.973 259.091Z" fill="#385F71" stroke="black"/>
<path d="M137.364 204.91L143.495 196.059L133.156 184.862L122.454 196.059L128.688 204.91L121.051 259.83C124.999 260.256 129 260.47 133.052 260.47C137.104 260.47 141.105 260.256 145.053 259.83L137.364 204.91Z" fill="#E41E72"/>
<path d="M71.2277 241.434C71.5914 241.648 71.9031 241.914 72.2668 242.127C72.2668 236.635 72.2668 233.33 72.2668 233.33C72.2668 233.33 71.8512 236.369 71.2277 241.434Z" fill="#314E67"/>
<path d="M193.733 242.127C194.097 241.914 194.409 241.648 194.772 241.434C194.149 236.422 193.733 233.33 193.733 233.33C193.733 233.33 193.785 236.635 193.733 242.127Z" fill="#314E67"/>
<path d="M156 166L156 139" stroke="black"/>
<path fill-rule="evenodd" clip-rule="evenodd" d="M109.725 154.949L107.647 163.054L113.362 205.39L133.104 184.862L109.725 154.949Z" fill="white"/>
<path fill-rule="evenodd" clip-rule="evenodd" d="M156.275 154.949L157.886 162.947L152.534 205.816L133.104 184.862L156.275 154.949Z" fill="white"/>
<path d="M93.2759 45.6683H173.29C173.29 45.6683 178.973 67.349 179.042 81.4033C179.115 96.0783 173.29 118.738 173.29 118.738C173.29 118.738 167.062 129.935 160.739 135.806C152.989 143.001 134.59 152.34 134.59 152.34C134.59 152.34 118.152 142.904 108.965 135.806C101.364 129.933 93.2759 118.738 93.2759 118.738C93.2759 118.738 86.9457 96.0369 87.0004 81.4033C87.0527 67.3922 93.2759 45.6683 93.2759 45.6683Z" fill="#EDD9B4" stroke="black"/>
<path d="M134.731 151.786L135.416 45.9193H93.8254C93.8254 45.9193 87.5673 67.7491 87.5322 82.0947C87.4966 96.645 93.8254 118.802 93.8254 118.802C93.8254 118.802 101.917 128.764 107.985 134.23C117.538 142.836 134.731 151.786 134.731 151.786Z" fill="#DCC5A1"/>
<path d="M119.04 83.714C119.04 86.4558 117.345 88.6785 115.254 88.6785C113.162 88.6785 111.467 86.4558 111.467 83.714C111.467 80.9723 113.162 78.7496 115.254 78.7496C117.345 78.7496 119.04 80.9723 119.04 83.714Z" fill="#4F4F4F"/>
<path d="M156.906 83.13C156.906 85.5492 155.211 89.0877 153.119 89.0877C151.028 89.0877 149.333 85.5492 149.333 83.13C149.333 80.7108 151.028 78.7496 153.119 78.7496C155.211 78.7496 156.323 80.619 156.906 83.13Z" fill="#4F4F4F"/>
<path d="M142.883 120.836H125.625C125.625 120.836 129.864 127.832 134.629 127.644C139.184 127.465 142.883 120.836 142.883 120.836Z" fill="white"/>
<path d="M107.396 60.0689C96.7174 67.4808 87.5229 77.1362 87.5229 77.1362C87.5229 77.1362 86.0441 46.9508 101.12 34.4677C113.804 23.9649 150.279 11 150.279 11C150.279 11 140.924 34.4119 156.031 28.0675C173.812 20.6005 177.996 72.336 177.996 72.336C177.996 72.336 165.886 61.1356 153.417 61.1356C101.643 61.1356 124.111 48.4668 107.396 60.0689Z" fill="#5F4747" stroke="black"/>
<path d="M134.5 144.632L126 142.526L134.5 152L143 142L134.5 144.632Z" fill="#565252"/>
<path d="M126 142.526L126.12 142.041L125.628 142.86L126 142.526ZM134.5 144.632L134.38 145.117L134.515 145.15L134.648 145.109L134.5 144.632ZM143 142L143.381 142.324L142.852 141.522L143 142ZM134.5 152L134.128 152.334L134.881 152.324L134.5 152ZM125.88 143.012L134.38 145.117L134.62 144.146L126.12 142.041L125.88 143.012ZM134.648 145.109L143.148 142.478L142.852 141.522L134.352 144.154L134.648 145.109ZM142.619 141.676L134.119 151.676L134.881 152.324L143.381 142.324L142.619 141.676ZM134.872 151.666L126.372 142.192L125.628 142.86L134.128 152.334L134.872 151.666Z" fill="#585151"/>
<path d="M179.5 94.2C179.676 94.2 179.826 94.1098 179.945 93.9874C180.065 93.8654 180.17 93.6961 180.265 93.4961C180.454 93.0951 180.62 92.5277 180.757 91.8425C181.032 90.4689 181.2 88.5801 181.2 86.5C181.2 84.4199 181.032 82.5311 180.757 81.1575C180.62 80.4723 180.454 79.9049 180.265 79.5039C180.17 79.3039 180.065 79.1346 179.945 79.0126C179.826 78.8902 179.676 78.8 179.5 78.8C179.324 78.8 179.174 78.8902 179.055 79.0126C178.935 79.1346 178.83 79.3039 178.735 79.5039C178.546 79.9049 178.38 80.4723 178.243 81.1575C177.968 82.5311 177.8 84.4199 177.8 86.5C177.8 88.5801 177.968 90.4689 178.243 91.8425C178.38 92.5277 178.546 93.0951 178.735 93.4961C178.83 93.6961 178.935 93.8654 179.055 93.9874C179.174 94.1098 179.324 94.2 179.5 94.2Z" fill="#EDD9B4" stroke="black" stroke-width="0.4"/>
<path d="M86.5 94.2C86.6763 94.2 86.8257 94.1098 86.9453 93.9874C87.0646 93.8654 87.1701 93.6961 87.2647 93.4961C87.4543 93.0951 87.6197 92.5277 87.7568 91.8425C88.0315 90.4689 88.2 88.5801 88.2 86.5C88.2 84.4199 88.0315 82.5311 87.7568 81.1575C87.6197 80.4723 87.4543 79.9049 87.2647 79.5039C87.1701 79.3039 87.0646 79.1346 86.9453 79.0126C86.8257 78.8902 86.6763 78.8 86.5 78.8C86.3237 78.8 86.1743 78.8902 86.0547 79.0126C85.9354 79.1346 85.8299 79.3039 85.7353 79.5039C85.5457 79.9049 85.3803 80.4723 85.2432 81.1575C84.9685 82.5311 84.8 84.4199 84.8 86.5C84.8 88.5801 84.9685 90.4689 85.2432 91.8425C85.3803 92.5277 85.5457 93.0951 85.7353 93.4961C85.8299 93.6961 85.9354 93.8654 86.0547 93.9874C86.1743 94.1098 86.3237 94.2 86.5 94.2Z" fill="#DCC5A1" stroke="black" stroke-width="0.4"/>
</svg>
