<svg width="40" height="40" viewBox="0 0 40 40" fill="none" xmlns="http://www.w3.org/2000/svg">
<path d="M37.2 7.6001H2.8C2.36 7.6001 2 7.9601 2 8.4001V31.6001C2 31.6001 2 31.6001 2 31.6401C2 31.6801 2 31.6801 2 31.7201C2 31.7601 2 31.7601 2 31.8001C2 31.8401 2 31.8401 2.04 31.8801C2.04 31.9201 2.04 31.9201 2.08 31.9601C2.08 32.0001 2.12 32.0001 2.12 32.0401C2.12 32.0801 2.16 32.0801 2.16 32.1201C2.16 32.1201 2.16 32.1201 2.16 32.1601C2.16 32.1601 2.16 32.1601 2.2 32.2001L2.24 32.2401L2.28 32.2801C2.28 32.2801 2.32 32.3201 2.36 32.3201C2.4 32.3201 2.4 32.3601 2.44 32.3601C2.48 32.3601 2.48 32.4001 2.52 32.4001C2.56 32.4001 2.56 32.4001 2.6 32.4401C2.64 32.4401 2.64 32.4401 2.68 32.4401C2.72 32.4401 2.72 32.4401 2.76 32.4401H2.8H37.2C37.28 32.4401 37.32 32.4401 37.36 32.4401H37.4C37.44 32.4401 37.48 32.4001 37.52 32.4001L37.56 32.3601C37.6 32.3601 37.64 32.3201 37.64 32.2801L37.68 32.2401C37.72 32.2001 37.72 32.2001 37.76 32.1601L37.8 32.1201C37.8 32.1201 37.8 32.1201 37.8 32.0801C37.8 32.0401 37.84 32.0401 37.84 32.0001C37.84 32.0001 37.88 31.9601 37.88 31.9201C37.88 31.8801 37.88 31.8801 37.92 31.8401C37.96 31.8001 37.92 31.8001 37.96 31.7601C37.96 31.7201 37.96 31.7201 37.96 31.6801C37.96 31.6401 37.96 31.6401 37.96 31.6001C37.96 31.6001 37.96 31.6001 37.96 31.5601V8.4001C38 7.9601 37.64 7.6001 37.2 7.6001ZM3.6 12.8401L14.4 21.4001L3.6 29.9601V12.8401ZM5.12 30.8001L15.72 22.4001L19.52 25.4001C19.68 25.5201 19.84 25.5601 20 25.5601C20.16 25.5601 20.36 25.5201 20.48 25.4001L24.28 22.4001L34.88 30.8001H5.12ZM36.4 29.9601L25.6 21.4001L36.4 12.8401V29.9601ZM36.4 10.8001L35.92 11.2001L20 23.8001L4.08 11.2001L3.6 10.8001V9.2001H36.4V10.8001Z" fill="#D7B377"/>
</svg>
