<svg width="40" height="40" viewBox="0 0 40 40" fill="none" xmlns="http://www.w3.org/2000/svg">
<path d="M33.307 5.83649C30.6202 3.31182 27.2706 1.60353 23.6494 0.911055C20.0281 0.21858 16.2846 0.570488 12.8558 1.9257C9.42707 3.28091 6.45455 5.5835 4.28529 8.56466C2.11603 11.5458 0.839537 15.0825 0.604841 18.7619C0.426516 21.4161 0.799266 24.0784 1.69965 26.5815C2.60004 29.0846 4.00858 31.3744 5.83672 33.3068C7.65683 35.2375 9.85164 36.7767 12.2869 37.8302C14.7222 38.8837 17.3468 39.4294 20.0002 39.4339C20.2766 39.4339 20.5418 39.3241 20.7373 39.1286C20.9328 38.9331 21.0427 38.6679 21.0427 38.3914C21.0427 38.1149 20.9328 37.8498 20.7373 37.6542C20.5418 37.4587 20.2766 37.3489 20.0002 37.3489C15.4948 37.3491 11.166 35.5966 7.92963 32.4622C4.69325 29.3278 2.80309 25.0574 2.65902 20.5543C2.51495 16.0512 4.12826 11.6687 7.15766 8.33385C10.1871 4.99899 14.3949 2.97339 18.8911 2.68555C21.258 2.53419 23.6308 2.86969 25.8629 3.67132C28.0951 4.47296 30.1391 5.72371 31.8689 7.34632C33.5987 8.96893 34.9775 10.929 35.92 13.1053C36.8626 15.2817 37.349 17.6282 37.3491 19.9999C37.3576 22.7344 36.7127 25.4314 35.4681 27.8662C35.0097 28.7157 34.2414 29.3555 33.323 29.6525C32.4047 29.9495 31.4071 29.8807 30.5382 29.4605L29.9854 29.1988C30.2988 28.8837 30.5896 28.5827 30.8019 28.355C30.8671 28.2847 30.9167 28.2015 30.9475 28.1107C30.9783 28.0199 30.9894 27.9236 30.9803 27.8282C30.9712 27.7328 30.9419 27.6404 30.8945 27.5571C30.8471 27.4738 30.7826 27.4014 30.7053 27.3449L25.5194 24.015C25.4357 23.9531 25.3404 23.9087 25.2391 23.8845C25.1379 23.8604 25.0328 23.8569 24.9301 23.8744C24.8275 23.8919 24.7295 23.93 24.6419 23.9864C24.5544 24.0427 24.4792 24.1162 24.4208 24.2024C24.0048 24.8165 23.0559 26.1612 23.0559 26.1612C23.0559 26.1612 20.8361 27.3565 16.9088 23.4292C16.8493 23.3697 16.8017 23.3144 16.7446 23.2558C16.6859 23.1986 16.6306 23.151 16.5712 23.0916C12.6438 19.1642 13.8391 16.9445 13.8391 16.9445C13.8391 16.9445 15.1839 15.9955 15.798 15.5796C15.8841 15.5212 15.9576 15.4459 16.014 15.3584C16.0703 15.2708 16.1084 15.1728 16.1259 15.0702C16.1434 14.9675 16.14 14.8624 16.1158 14.7612C16.0916 14.6599 16.0472 14.5646 15.9853 14.4809L12.6555 9.29509C12.5989 9.21772 12.5266 9.15321 12.4433 9.1058C12.36 9.05839 12.2676 9.02916 12.1722 9.02003C12.0767 9.0109 11.9805 9.02207 11.8897 9.05282C11.7989 9.08356 11.7157 9.13318 11.6454 9.19841C10.8742 9.91739 9.28238 11.5025 9.03885 12.011C8.45449 13.2668 8.3739 14.6989 8.81369 16.0124C9.94701 19.4536 11.8731 22.5804 14.4368 25.1406C14.5089 25.2127 14.582 25.2755 14.6543 25.346C14.7248 25.4183 14.7877 25.4915 14.8597 25.5636C17.4199 28.1272 20.5467 30.0533 23.988 31.1867C25.3015 31.6264 26.7335 31.5458 27.9894 30.9615C28.1119 30.8932 28.2278 30.8138 28.3358 30.7243L29.6457 31.3446C31.0053 31.994 32.5632 32.0931 33.9942 31.6214C35.4252 31.1497 36.6187 30.1436 37.3257 28.813C38.7205 26.0852 39.4434 23.0636 39.4341 19.9999C39.4296 17.3465 38.8839 14.722 37.8304 12.2867C36.7769 9.8514 35.2377 7.6566 33.307 5.83649Z" fill="#D7B377"/>
</svg>
